<svg width="106" height="106" viewBox="0 0 106 106" fill="none" xmlns="http://www.w3.org/2000/svg">
<path d="M93.1251 58.93C93.7638 55.0003 93.7638 50.9997 93.1251 47.07L102.034 38.8333C102.542 38.3637 102.871 37.7451 102.969 37.0759C103.067 36.4067 102.929 35.7253 102.576 35.14L93.9528 20.8683C93.5995 20.2829 93.0518 19.8273 92.3967 19.5739C91.7416 19.3205 91.0167 19.2839 90.3374 19.47L78.1773 22.8033C75.0262 20.4443 71.5228 18.551 67.7841 17.1867L64.6809 5.295C64.5099 4.64049 64.1153 4.05932 63.5598 3.6436C63.0043 3.22787 62.3197 3.00137 61.6144 3H44.3858C43.6793 2.99989 42.9931 3.22571 42.4361 3.64155C41.8792 4.05739 41.4836 4.63938 41.3123 5.295L38.0924 17.6183C34.6806 18.9838 31.4832 20.7949 28.5912 23L15.6559 19.46C14.9765 19.2739 14.2516 19.3105 13.5965 19.5639C12.9414 19.8173 12.3937 20.2729 12.0404 20.8583L3.42615 35.1367C3.07189 35.7221 2.93261 36.4041 3.0305 37.074C3.12838 37.7439 3.4578 38.3632 3.96629 38.8333L13.8142 47.94C13.3359 51.2995 13.3359 54.7055 13.8142 58.065L3.96629 67.1667C3.45834 67.6363 3.12911 68.2549 3.03092 68.9241C2.93274 69.5933 3.07124 70.2747 3.42441 70.86L12.0387 85.1317C12.3919 85.7171 12.9397 86.1727 13.5948 86.4261C14.2499 86.6795 14.9748 86.7161 15.6541 86.53L28.5912 83C31.4833 85.2071 34.6814 87.0199 38.0941 88.3867L41.314 100.71C41.4863 101.364 41.8821 101.945 42.4385 102.36C42.995 102.775 43.6803 103 44.3858 103H61.6144C62.3197 102.999 63.0043 102.772 63.5598 102.356C64.1153 101.941 64.5099 101.36 64.6809 100.705L67.7858 88.8333C71.5246 87.4685 75.028 85.5746 78.1791 83.215L90.3391 86.5483C91.0184 86.7344 91.7433 86.6978 92.3984 86.4444C93.0536 86.1911 93.6013 85.7354 93.9545 85.15L102.569 70.8783C102.922 70.2931 103.06 69.6117 102.962 68.9425C102.864 68.2733 102.535 67.6547 102.027 67.185L93.1251 58.93Z" stroke="#170C3A" stroke-width="2" stroke-miterlimit="10"/>
<path d="M94.7302 59.1672C95.3943 55.0803 95.3943 50.9197 94.7302 46.8328L103.995 38.2667C104.524 37.7782 104.866 37.1349 104.968 36.4389C105.07 35.7429 104.926 35.0343 104.559 34.4256L95.5909 19.5831C95.2235 18.9742 94.6539 18.5004 93.9726 18.2368C93.2912 17.9733 92.5374 17.9353 91.8309 18.1288L79.1844 21.5955C75.9072 19.1421 72.2637 17.1731 68.3755 15.7541L65.1482 3.3868C64.9703 2.70611 64.5599 2.10169 63.9822 1.66934C63.4045 1.23699 62.6925 1.00143 61.9589 1H44.0412C43.3065 0.999885 42.5928 1.23473 42.0136 1.66721C41.4344 2.09968 41.023 2.70496 40.8448 3.3868L37.4961 16.2031C33.9479 17.6231 30.6225 19.5067 27.6149 21.8L14.1621 18.1184C13.4556 17.9249 12.7017 17.9629 12.0204 18.2264C11.3391 18.49 10.7694 18.9638 10.4021 19.5727L1.4432 34.4221C1.07477 35.031 0.929918 35.7402 1.03172 36.437C1.13352 37.1337 1.47611 37.7778 2.00494 38.2667L12.2467 47.7376C11.7493 51.2315 11.7493 54.7737 12.2467 58.2676L2.00494 67.7333C1.47667 68.2218 1.13427 68.8651 1.03216 69.5611C0.930046 70.2571 1.07409 70.9657 1.44139 71.5744L10.4002 86.4169C10.7676 87.0258 11.3372 87.4997 12.0186 87.7632C12.6999 88.0267 13.4538 88.0647 14.1603 87.8712L27.6149 84.2C30.6227 86.4954 33.9487 88.3807 37.4979 89.8021L40.8466 102.618C41.0258 103.299 41.4373 103.903 42.0161 104.334C42.5948 104.766 43.3075 105 44.0412 105H61.9589C62.6925 104.999 63.4045 104.763 63.9822 104.331C64.5599 103.898 64.9703 103.294 65.1482 102.613L68.3773 90.2667C72.2656 88.8472 75.9091 86.8776 79.1863 84.4236L91.8327 87.8903C92.5392 88.0838 93.2931 88.0457 93.9744 87.7822C94.6557 87.5187 95.2253 87.0449 95.5927 86.436L104.552 71.5935C104.919 70.9848 105.063 70.2761 104.961 69.5802C104.859 68.8842 104.516 68.2408 103.988 67.7524L94.7302 59.1672Z" stroke="#170C3A" stroke-width="2" stroke-miterlimit="10"/>
<path d="M82.9494 33.743L75.9764 38.149C75.7435 38.2971 75.4695 38.3673 75.1941 38.3493C74.9186 38.3313 74.6561 38.2262 74.4444 38.049L71.5694 35.649C71.3679 35.4812 71.2218 35.2563 71.1504 35.004L70.2374 31.804C70.1566 31.5237 70.1724 31.2243 70.2823 30.954C70.3922 30.6838 70.5898 30.4583 70.8434 30.314L78.8104 25.751C77.005 24.2342 74.7847 23.2962 72.4386 23.0594C70.0925 22.8225 67.7295 23.2978 65.6574 24.4232C63.5853 25.5486 61.9001 27.272 60.8216 29.3689C59.743 31.4657 59.3209 33.8388 59.6104 36.179C59.6964 36.7864 59.642 37.4053 59.4513 37.9884C59.2606 38.5714 58.9387 39.1029 58.5104 39.542L39.5444 58.518C39.1092 58.9448 38.5818 59.2659 38.0029 59.4566C37.424 59.6474 36.809 59.7026 36.2054 59.618C34.4025 59.3784 32.5685 59.5635 30.8499 60.1586C29.1313 60.7538 27.5756 61.7425 26.307 63.0458C25.0384 64.349 24.092 65.9308 23.5434 67.6649C22.9948 69.3989 22.8592 71.2372 23.1474 73.033L31.0674 68.033C31.3003 67.8849 31.5743 67.8147 31.8497 67.8327C32.1252 67.8507 32.3877 67.9559 32.5994 68.133L35.4744 70.533C35.6758 70.7006 35.8218 70.925 35.8934 71.177L36.8064 74.377C36.8872 74.6573 36.8714 74.9567 36.7615 75.227C36.6516 75.4972 36.454 75.7227 36.2004 75.867L27.7614 80.689C29.613 82.0633 31.8287 82.8613 34.1314 82.9832C36.4341 83.1051 38.7216 82.5455 40.7079 81.3743C42.6943 80.2031 44.2913 78.4724 45.2993 76.3985C46.3074 74.3245 46.6816 71.9995 46.3754 69.714C46.2857 69.1122 46.3365 68.4979 46.5237 67.919C46.7109 67.3401 47.0294 66.8124 47.4544 66.377L66.3544 47.477C66.7899 47.0477 67.3189 46.7251 67.8999 46.5343C68.4809 46.3434 69.0981 46.2896 69.7034 46.377C71.3617 46.5994 73.0484 46.4646 74.6504 45.9818C76.2524 45.499 77.7327 44.6792 78.9919 43.5774C80.2512 42.4757 81.2603 41.1174 81.9516 39.5937C82.643 38.0701 83.0006 36.4162 83.0004 34.743C83.0004 34.404 82.9774 34.074 82.9494 33.743Z" stroke="#170C3A" stroke-width="2" stroke-miterlimit="10"/>
<path d="M80.9524 35.0269L74.4443 39.1392C74.2269 39.2774 73.9712 39.3429 73.7141 39.3261C73.4571 39.3093 73.212 39.2112 73.0145 39.0458L70.3311 36.8058C70.143 36.6492 70.0067 36.4393 69.9401 36.2038L69.0879 33.2171C69.0125 32.9555 69.0272 32.6761 69.1298 32.4238C69.2324 32.1716 69.4169 31.9612 69.6535 31.8264L77.0894 27.5676C75.4044 26.1519 73.332 25.2765 71.1424 25.0554C68.9527 24.8344 66.7472 25.2779 64.8133 26.3283C62.8793 27.3787 61.3066 28.9872 60.2999 30.9443C59.2932 32.9014 58.8993 35.1163 59.1695 37.3005C59.2498 37.8673 59.1989 38.4451 59.021 38.9892C58.843 39.5334 58.5426 40.0295 58.1428 40.4393L40.4413 58.1503C40.0352 58.5487 39.543 58.8484 39.0026 59.0264C38.4623 59.2044 37.8883 59.256 37.325 59.177C35.6423 58.9534 33.9306 59.1262 32.3265 59.6816C30.7225 60.2371 29.2705 61.1599 28.0865 62.3763C26.9025 63.5927 26.0192 65.069 25.5072 66.6875C24.9952 68.306 24.8686 70.0217 25.1376 71.6978L32.5295 67.0311C32.7469 66.8928 33.0026 66.8273 33.2597 66.8441C33.5168 66.8609 33.7618 66.9591 33.9594 67.1244L36.6427 69.3644C36.8306 69.5208 36.9669 69.7303 37.0338 69.9655L37.8859 72.9522C37.9613 73.2138 37.9466 73.4932 37.844 73.7455C37.7414 73.9977 37.5569 74.2081 37.3203 74.3429L29.4439 78.8434C31.1721 80.1261 33.24 80.8709 35.3892 80.9847C37.5384 81.0985 39.6734 80.5761 41.5273 79.483C43.3812 78.3899 44.8718 76.7746 45.8126 74.8389C46.7534 72.9032 47.1027 70.7332 46.8169 68.6C46.7332 68.0384 46.7806 67.465 46.9553 66.9247C47.13 66.3844 47.4273 65.8918 47.824 65.4855L65.4638 47.8454C65.8703 47.4447 66.364 47.1436 66.9063 46.9654C67.4485 46.7873 68.0247 46.7371 68.5895 46.8187C70.1373 47.0262 71.7116 46.9005 73.2068 46.4498C74.702 45.9992 76.0835 45.234 77.2588 44.2057C78.4341 43.1774 79.3759 41.9097 80.0212 40.4876C80.6664 39.0655 81.0001 37.5219 81 35.9602C81 35.6438 80.9785 35.3358 80.9524 35.0269Z" stroke="#170C3A" stroke-width="2" stroke-miterlimit="10"/>
</svg>
